<svg width="12" height="15" viewBox="0 0 12 15" fill="none" xmlns="http://www.w3.org/2000/svg">
<path d="M3.71344 14.4905H0.781854C0.625458 14.4905 0.498779 14.3638 0.498779 14.2075V12.4918H3.99649V14.2075C3.99652 14.3638 3.86984 14.4905 3.71344 14.4905Z" fill="#8A8A8A"/>
<path d="M0.498657 10.9928H3.99637V3.49768H0.498657V10.9928Z" fill="#8A8A8A"/>
<path d="M3.99637 1.9987H0.498657V0.283075C0.498657 0.126679 0.625308 0 0.781704 0H3.71329C3.86969 0 3.99637 0.126679 3.99637 0.283075V1.9987Z" fill="#8A8A8A"/>
<path d="M4.25986 3.50843H0.231303C0.10351 3.50843 0 3.38176 0 3.22536V2.29247C0 2.13608 0.10351 2.0094 0.231303 2.0094H4.25989C4.38768 2.0094 4.49119 2.13608 4.49119 2.29247V3.22536C4.49117 3.38178 4.38768 3.50843 4.25986 3.50843Z" fill="#8A8A8A"/>
<path d="M4.25986 12.5026H0.231303C0.10351 12.5026 0 12.3759 0 12.2195V11.2866C0 11.1302 0.10351 11.0035 0.231303 11.0035H4.25989C4.38768 11.0035 4.49119 11.1302 4.49119 11.2866V12.2195C4.49117 12.3759 4.38768 12.5026 4.25986 12.5026Z" fill="#8A8A8A"/>
<path d="M12 5.98803V8.50244C12 8.63658 11.8727 8.74523 11.7154 8.74523H9.9906V5.74524H11.7154C11.8727 5.74524 12 5.85411 12 5.98803Z" fill="#508F33"/>
<path d="M9.9906 5.46968V9.0492C9.9906 9.16275 9.86384 9.25472 9.70734 9.25472H8.77386C8.61736 9.25472 8.4906 9.16275 8.4906 9.0492V5.46968C8.4906 5.35632 8.61736 5.26416 8.77386 5.26416H9.70734C9.86384 5.26418 9.9906 5.35632 9.9906 5.46968Z" fill="#508F33"/>
<path d="M3.99646 8.74429H8.49354V5.74622H3.99646V8.74429Z" fill="#508F33"/>
</svg>
